<?xml version="1.0" encoding="UTF-8"?>
<svg width="22px" height="30px" viewBox="0 0 22 30" version="1.1" xmlns="http://www.w3.org/2000/svg" xmlns:xlink="http://www.w3.org/1999/xlink">
    <title>anchor</title>
    <g id="Page-1" stroke="none" stroke-width="1" fill="none" fill-rule="evenodd">
        <g id="Group-2" transform="translate(-5.000000, -1.000000)" fill="#7649BC" fill-rule="nonzero">
            <g id="anchor" transform="translate(6.000000, 2.000000)">
                <g id="Group" stroke="#7649BC" stroke-width="0.5">
                    <path d="M12.3367074,0.0972066368 C13.5091949,0.39693429 14.2799221,2.1194397 13.9039862,3.3204238 C13.6767575,4.04634004 13.1870231,4.92523681 12.4352197,5.95951692 C12.2239257,7.6046233 12.3156131,10.1510486 12.711332,13.5950594 C13.1022408,16.9972072 13.2565267,18.3823606 13.351305,19.5652309 L13.3714592,19.8254987 C13.3939977,20.1269809 13.4134182,20.4239018 13.4328071,20.747885 C13.5683725,23.0131421 13.4726583,24.4776186 13.0802617,25.2477096 C12.0725244,27.2254273 11.0619926,28 8.92350515,28 C7.35722688,28 5.56824318,27.8877405 3.55381878,27.6630384 C1.6663337,27.4228106 0.517958142,26.7777184 0.135575034,25.7210782 C-0.484958636,24.006356 1.12375219,18.5613924 2.94520857,16.9317009 C3.01233676,16.8716401 3.11002489,16.8498415 3.1914946,16.9173415 C3.23505669,16.953434 3.25190377,16.9983361 3.26151636,17.0614622 C3.27330686,17.1388905 3.27252333,17.256961 3.26132022,17.4269427 C3.25202682,17.5679491 3.23590333,17.7411363 3.20979283,17.9891502 C3.1988971,18.0926449 3.14750789,18.5658987 3.1336843,18.6968377 C3.09360553,19.076469 3.06468421,19.3825708 3.042439,19.6780645 C2.93571534,21.0957258 3.02310208,21.9827206 3.34364059,22.1739151 C3.46717909,22.2476033 3.53565881,22.3390866 3.41914406,22.4420051 C3.36262446,22.4919295 3.28617382,22.5028819 3.15457539,22.5022621 C2.9781072,22.501431 2.68088315,22.4720156 2.25856834,22.4140954 C1.92118473,23.0573493 1.90877659,23.5923606 2.30821061,24.4659591 C2.6137555,25.1342134 3.20084537,25.4944057 4.1076626,25.5576432 C8.02492639,26.2319911 10.2575822,25.744388 10.8557549,24.1331651 C11.2699493,23.0175017 11.3416432,19.1945138 11.126505,14.2967588 L11.1129593,13.9959656 L11.1129593,13.9959656 L11.0840473,13.3972925 C10.8936335,9.62193678 10.5692974,6.2050768 10.3877908,5.99210827 C9.52824855,4.98357511 8.78077575,3.69015381 8.78077575,2.75085379 C8.78077575,1.96904695 9.17732165,1.20876742 9.96267146,0.472639764 L9.98809406,0.453773562 C10.7475297,0.0121106282 11.5339131,-0.108014848 12.3367074,0.0972066368 Z M11.3802689,1.31119449 C10.7496507,1.31119449 10.2384337,1.84141887 10.2384337,2.4954838 C10.2384337,3.14954872 10.7496507,3.67977311 11.3802689,3.67977311 C12.010887,3.67977311 12.522104,3.14954872 12.522104,2.4954838 C12.522104,1.84141887 12.010887,1.31119449 11.3802689,1.31119449 Z" id="Combined-Shape"></path>
                </g>
                <path d="M16.4914625,7.02505763 C18.75379,6.866366 20.6769042,7.48558409 20.9569022,8.19989428 C21.4390922,9.43002192 17.8198427,11.5072872 12.8730822,12.8395962 C11.0313033,13.3356418 8.95718709,13.7386968 7.63868888,13.8948279 C5.00172642,14.2070862 3.34575872,13.7967382 3.04309782,13.0246119 C2.56090784,11.7944843 6.18015734,9.71721899 11.1269178,8.38491 C13.2011947,7.82624585 14.8577914,7.13965199 16.4914625,7.02505763 Z M10.2756853,9.21089363 C7.56522414,9.94090102 5.75512003,10.7722051 5.00169248,11.5528608 C4.63460072,11.9332189 3.8753339,12.350656 3.87741506,12.6183317 C3.88328752,13.3715404 7.77063042,13.6302183 12.1310465,12.2012117 C16.4914625,10.7722051 19.457759,9.41941534 19.1041531,8.51732173 C18.7505471,7.61522815 14.4804317,8.078431 10.2756853,9.21089363 Z" id="Shape"></path>
                <path d="M3.07678035,7.86255219 C3.72036988,6.50477832 8.23716381,6.77990332 13.1653219,8.47706112 C18.0934801,10.1742189 21.5668092,12.6507303 20.9232197,14.0085042 C20.5299667,14.8381458 18.5539433,15.1203479 16.6097004,14.9546265 C15.1322583,14.8286938 12.7515803,14.0541376 10.8346781,13.3939953 C5.90651992,11.6968375 2.43319082,9.22032607 3.07678035,7.8625522 L3.07678035,7.86255219 Z M4.38214471,8.2721079 C4.12100306,8.82303562 5.48674128,9.78250856 6.49963724,10.6458705 C7.08291011,11.1430346 9.11870509,12.2008648 11.1695035,12.754372 C15.6375789,13.9602982 19.222153,14.5672658 19.7048451,13.5489354 C20.1875373,12.530605 17.1966683,10.3047357 12.9174864,9.06667133 C10.5300073,8.37591949 8.9121912,8.32144844 6.88848582,7.82860693 C5.52751578,7.49716416 4.595529,7.82193339 4.38214471,8.2721079 Z" id="Shape"></path>
            </g>
        </g>
    </g>
</svg>